<svg width="24" height="24" viewBox="0 0 24 24" fill="none" xmlns="http://www.w3.org/2000/svg">
<path d="M21.33 19.0349C21.2044 19.598 20.893 20.1023 20.446 20.4669C19.9576 20.9623 19.3757 21.3556 18.734 21.6241C18.0923 21.8926 17.4036 22.0309 16.708 22.0309H16.383C14.923 21.9517 13.4935 21.5821 12.178 20.9439H12.168C11.863 20.8019 11.548 20.6599 11.243 20.4869C9.70741 19.6259 8.29894 18.5557 7.058 17.3069C5.44756 15.7943 4.12601 14.001 3.158 12.0149C2.64355 10.9265 2.30018 9.76515 2.14 8.57194C1.90446 7.32295 2.04615 6.03211 2.547 4.86394C2.8632 4.33692 3.24938 3.8552 3.695 3.43194C3.89552 3.20519 4.14066 3.02226 4.41511 2.89458C4.68956 2.76691 4.9874 2.69724 5.29 2.68994C5.6191 2.72631 5.9377 2.82769 6.2273 2.9882C6.5169 3.14871 6.77173 3.36514 6.977 3.62494C7.434 4.12194 7.992 4.63994 8.45 5.11794L9.08 5.73794C9.45 6.06594 9.679 6.52394 9.72 7.01794C9.72 7.47094 9.553 7.90794 9.252 8.24694C9.05707 8.48403 8.85013 8.711 8.632 8.92694L8.429 9.13994C8.311 9.24994 8.221 9.38594 8.165 9.53694C8.115 9.68561 8.095 9.83794 8.105 9.99394C8.266 10.4249 8.519 10.8169 8.845 11.1419C9.354 11.8319 9.862 12.4319 10.38 13.0819C11.317 14.1697 12.4289 15.0934 13.67 15.8149C13.797 15.9079 13.943 15.9699 14.098 15.9969C14.232 16.0069 14.368 15.9869 14.494 15.9369C14.849 15.7279 15.164 15.4599 15.428 15.1439C15.783 14.7092 16.2927 14.4289 16.85 14.3619C17.3863 14.3693 17.8979 14.5886 18.273 14.9719C18.476 15.1439 18.699 15.3779 18.913 15.6019L19.217 15.9159L19.532 16.2209L20.071 16.7689C20.3923 17.0543 20.6937 17.3593 20.975 17.6839C21.257 18.0739 21.384 18.5569 21.33 19.0349ZM17.684 12.0759C17.4826 12.0739 17.2899 11.9929 17.1475 11.8505C17.005 11.708 16.9241 11.5154 16.922 11.3139C16.9231 10.7387 16.8105 10.1689 16.5909 9.63731C16.3713 9.10567 16.0488 8.62262 15.6421 8.21588C15.2353 7.80913 14.7523 7.48669 14.2206 7.26705C13.689 7.04741 13.1192 6.93489 12.544 6.93594C12.3419 6.93594 12.1481 6.85566 12.0052 6.71276C11.8623 6.56985 11.782 6.37604 11.782 6.17394C11.782 5.97185 11.8623 5.77803 12.0052 5.63513C12.1481 5.49222 12.3419 5.41194 12.544 5.41194C13.3194 5.41076 14.0874 5.56261 14.804 5.85879C15.5206 6.15497 16.1717 6.58967 16.72 7.13795C17.2683 7.68624 17.703 8.33734 17.9992 9.05394C18.2953 9.77054 18.4472 10.5385 18.446 11.3139C18.4463 11.4141 18.4267 11.5133 18.3885 11.6059C18.3503 11.6984 18.2942 11.7825 18.2234 11.8533C18.1526 11.9242 18.0685 11.9803 17.9759 12.0185C17.8833 12.0567 17.7841 12.0762 17.684 12.0759Z" fill="#14598F"/>
<path d="M21.209 11.72C21.0077 11.7179 20.8153 11.6371 20.6728 11.4949C20.5304 11.3526 20.4493 11.1603 20.447 10.959C20.4486 9.97891 20.2569 9.00812 19.8829 8.10218C19.5089 7.19625 18.9599 6.37296 18.2674 5.67941C17.5749 4.98587 16.7524 4.43568 15.847 4.06034C14.9416 3.685 13.9711 3.49187 12.991 3.49201C12.8887 3.49571 12.7867 3.47876 12.691 3.44216C12.5954 3.40557 12.5081 3.35007 12.4344 3.27899C12.3607 3.20791 12.3021 3.12271 12.2621 3.02847C12.222 2.93424 12.2014 2.8329 12.2014 2.73051C12.2014 2.62812 12.222 2.52677 12.2621 2.43254C12.3021 2.3383 12.3607 2.2531 12.4344 2.18202C12.5081 2.11094 12.5954 2.05545 12.691 2.01885C12.7867 1.98225 12.8887 1.9653 12.991 1.96901C14.1711 1.96901 15.3397 2.20161 16.4298 2.65352C17.52 3.10544 18.5104 3.76779 19.3444 4.60272C20.1784 5.43765 20.8396 6.42878 21.2903 7.51944C21.741 8.6101 21.9723 9.77889 21.971 10.959C21.9713 11.0591 21.9517 11.1584 21.9135 11.2509C21.8753 11.3435 21.8192 11.4276 21.7484 11.4984C21.6776 11.5692 21.5935 11.6253 21.5009 11.6635C21.4083 11.7017 21.3091 11.7203 21.209 11.72Z" fill="#14598F"/>
</svg>
